<svg xmlns="http://www.w3.org/2000/svg" width="1150" height="1150" viewBox="0 0 1150 1150" version="1.1">
	<path d="M 869.500 330.096 C 862.900 331.128, 850.750 332.877, 842.500 333.983 C 834.250 335.088, 823.225 336.685, 818 337.531 C 805.728 339.518, 785.115 342.489, 762.500 345.532 C 752.600 346.864, 743.513 348.192, 742.307 348.482 C 741.101 348.772, 732.101 350.142, 722.307 351.526 C 705.693 353.874, 692.019 355.826, 656 360.992 C 648.025 362.136, 637 363.760, 631.500 364.601 C 608.785 368.074, 580.602 372.160, 566.876 373.970 C 558.833 375.031, 551.183 376.150, 549.876 376.458 C 548.569 376.765, 537.600 378.396, 525.500 380.081 C 498.451 383.849, 472.649 387.577, 464 388.967 C 456.047 390.245, 434.382 393.343, 411 396.544 C 401.375 397.862, 384.275 400.330, 373 402.029 C 361.725 403.727, 346.283 405.987, 338.683 407.050 C 331.084 408.113, 321.859 409.470, 318.183 410.066 C 310.960 411.237, 288.456 414.447, 256.143 418.915 C 244.946 420.463, 235.478 422.227, 235.103 422.834 C 234.727 423.441, 235.443 431.265, 236.693 440.219 C 237.943 449.174, 240.303 466.625, 241.936 479 C 243.570 491.375, 245.554 505.775, 246.345 511 C 247.135 516.225, 248.318 524.775, 248.973 530 C 249.628 535.225, 250.600 541.820, 251.133 544.655 C 251.666 547.490, 253.175 557.840, 254.487 567.655 C 255.798 577.470, 257.790 592.250, 258.914 600.500 C 260.037 608.750, 261.436 619.325, 262.021 624 C 262.607 628.675, 263.531 634.975, 264.076 638 C 264.620 641.025, 266.194 651.600, 267.573 661.500 C 273.601 704.782, 276.071 722.689, 278.468 740.500 C 279.875 750.950, 281.252 760.117, 281.528 760.872 C 281.889 761.856, 282.945 762.049, 285.265 761.555 C 287.044 761.176, 297.500 759.518, 308.500 757.872 C 342.081 752.845, 365.710 749.230, 383 746.477 C 398.514 744.006, 415.810 741.318, 453.500 735.519 C 462.300 734.165, 478.725 731.687, 490 730.013 C 501.275 728.339, 511.175 726.758, 512 726.499 C 512.825 726.240, 521.150 724.879, 530.500 723.474 C 595.778 713.665, 638.193 707.162, 651.500 704.922 C 659.738 703.536, 685.585 699.529, 709 696.009 C 719.725 694.397, 737.275 691.688, 748 689.988 C 806.701 680.689, 835.155 676.320, 855.500 673.485 C 865.400 672.105, 874.149 670.738, 874.941 670.446 C 875.734 670.155, 883.834 668.782, 892.941 667.397 C 902.049 666.011, 916.650 663.792, 925.390 662.466 C 934.129 661.139, 941.531 659.802, 941.838 659.496 C 942.321 659.012, 936.614 620.772, 933.929 606.500 C 933.411 603.750, 931.625 592.500, 929.959 581.500 C 926.762 560.386, 923.084 536.881, 918.065 505.500 C 916.394 495.050, 913.659 477.500, 911.988 466.500 C 910.317 455.500, 908.744 445.825, 908.493 445 C 908.241 444.175, 906.899 435.850, 905.510 426.500 C 904.121 417.150, 901.420 399.825, 899.509 388 C 897.597 376.175, 894.893 358.850, 893.500 349.500 C 892.106 340.150, 890.533 331.488, 890.004 330.250 C 888.820 327.478, 886.366 327.460, 869.500 330.096 M 867.500 347.131 C 860.900 348.185, 851 349.701, 845.500 350.501 C 840 351.301, 832.575 352.417, 829 352.980 C 825.425 353.544, 814.625 355.164, 805 356.580 C 795.375 357.996, 785.475 359.517, 783 359.959 C 780.525 360.401, 773.100 361.506, 766.500 362.414 C 759.900 363.322, 751.800 364.530, 748.500 365.097 C 742.370 366.151, 735.670 367.113, 721.500 368.972 C 717.100 369.549, 711.475 370.433, 709 370.937 C 706.525 371.440, 701.125 372.321, 697 372.893 C 692.875 373.465, 681.850 375.081, 672.500 376.484 C 663.150 377.888, 652.575 379.461, 649 379.981 C 637.182 381.700, 608.701 385.999, 596 387.981 C 589.125 389.054, 579.900 390.434, 575.500 391.048 C 571.100 391.662, 565.025 392.563, 562 393.052 C 556.953 393.868, 547.853 395.210, 508.500 400.946 C 495.302 402.870, 489.018 403.871, 476 406.122 C 472.975 406.645, 463.750 408.003, 455.500 409.140 C 447.250 410.277, 438.025 411.612, 435 412.107 C 431.975 412.602, 425 413.661, 419.500 414.460 C 414 415.259, 406.575 416.390, 403 416.973 C 399.425 417.556, 392.675 418.485, 388 419.037 C 383.325 419.588, 374.550 420.895, 368.500 421.940 C 362.450 422.985, 353.675 424.353, 349 424.982 C 344.325 425.610, 336.675 426.763, 332 427.545 C 327.325 428.326, 318.550 429.657, 312.500 430.504 C 306.450 431.350, 296.100 432.886, 289.500 433.917 C 282.900 434.948, 273.675 436.317, 269 436.958 C 254.609 438.930, 250.860 439.982, 251.461 441.877 C 251.751 442.791, 252.646 448.480, 253.450 454.519 C 254.253 460.559, 255.352 468.425, 255.892 472 C 260.037 499.482, 264.569 530.142, 266.533 544 C 267.819 553.075, 269.594 565, 270.478 570.500 C 271.362 576, 272.564 584.100, 273.148 588.500 C 274.248 596.789, 275.489 604.675, 276.374 609 C 276.655 610.375, 277.610 617.350, 278.496 624.500 C 279.382 631.650, 280.552 639.750, 281.096 642.500 C 281.640 645.250, 283.443 656.950, 285.102 668.500 C 286.761 680.050, 288.765 694, 289.557 699.500 C 290.348 705, 291.453 712.875, 292.013 717 C 292.572 721.125, 293.831 729.225, 294.809 735 L 296.588 745.500 300.544 745.225 C 302.720 745.074, 307.200 744.511, 310.500 743.975 C 316.131 743.059, 328.363 741.235, 344.500 738.903 C 348.350 738.346, 353.750 737.492, 356.500 737.005 C 364.344 735.615, 394.274 731.185, 407.500 729.457 C 414.100 728.595, 421.750 727.495, 424.500 727.013 C 431.280 725.824, 439.479 724.534, 459 721.582 C 492.878 716.459, 507.120 714.383, 527.500 711.600 C 534.100 710.698, 540.175 709.712, 541 709.409 C 541.825 709.105, 547.450 708.218, 553.500 707.437 C 559.550 706.656, 567.425 705.548, 571 704.974 C 586.598 702.472, 596.847 700.949, 601.500 700.442 C 604.250 700.143, 608.075 699.500, 610 699.013 C 611.925 698.527, 619.125 697.415, 626 696.543 C 640.305 694.728, 651.828 692.998, 653.972 692.342 C 654.782 692.095, 660.632 691.214, 666.972 690.385 C 673.312 689.556, 680.975 688.489, 684 688.014 C 691.853 686.782, 701.971 685.276, 713.500 683.624 C 734.314 680.642, 751.792 677.978, 760 676.538 C 764.675 675.718, 772.325 674.583, 777 674.016 C 781.675 673.449, 792.475 671.851, 801 670.465 C 809.525 669.078, 820.325 667.491, 825 666.938 C 829.675 666.384, 835.075 665.532, 837 665.042 C 838.925 664.553, 844.775 663.620, 850 662.969 C 855.225 662.318, 863.325 661.130, 868 660.330 C 872.675 659.530, 877.850 658.682, 879.500 658.446 C 909.209 654.192, 925.636 651.613, 926.203 651.113 C 926.589 650.773, 926.275 646.221, 925.504 640.997 C 923.175 625.202, 921.035 610.384, 918.500 592.500 C 917.175 583.150, 915.643 572.800, 915.095 569.500 C 912.498 553.853, 911.120 544.606, 906.378 511 C 905.563 505.225, 904.477 497.800, 903.965 494.500 C 903.453 491.200, 901.890 480.400, 900.493 470.500 C 899.095 460.600, 897.298 448.675, 896.499 444 C 895.700 439.325, 894.543 431.675, 893.927 427 C 893.312 422.325, 891.746 411.750, 890.449 403.500 C 889.151 395.250, 887.119 381.750, 885.933 373.500 C 881.823 344.908, 881.812 344.855, 880.191 345.108 C 879.811 345.167, 874.100 346.077, 867.500 347.131 M 856 364.625 C 851.875 365.399, 843.775 366.697, 838 367.508 C 832.225 368.319, 824.575 369.451, 821 370.024 C 815.096 370.969, 804.792 372.497, 787 375.065 C 783.425 375.581, 778.025 376.428, 775 376.947 C 771.975 377.467, 764.100 378.583, 757.500 379.427 C 750.900 380.272, 743.025 381.421, 740 381.982 C 732.463 383.379, 724.559 384.622, 711 386.543 C 704.675 387.440, 697.025 388.557, 694 389.025 C 690.975 389.494, 683.775 390.581, 678 391.441 C 672.225 392.301, 665.025 393.454, 662 394.004 C 658.975 394.553, 652.225 395.480, 647 396.062 C 641.775 396.645, 633.675 397.800, 629 398.628 C 624.325 399.457, 613.075 401.226, 604 402.559 C 594.925 403.893, 584.575 405.442, 581 406 C 577.425 406.559, 571.125 407.445, 567 407.969 C 562.875 408.494, 555.675 409.607, 551 410.443 C 546.325 411.279, 535.975 412.924, 528 414.098 C 520.025 415.273, 510.800 416.633, 507.500 417.122 C 504.200 417.611, 498.350 418.441, 494.500 418.967 C 483.026 420.534, 453.159 425.025, 443.500 426.636 C 438.550 427.461, 429.550 428.808, 423.500 429.628 C 411.653 431.235, 402.990 432.566, 399 433.392 C 397.625 433.677, 391.325 434.620, 385 435.488 C 378.675 436.356, 367.875 437.927, 361 438.978 C 354.125 440.029, 343.325 441.611, 337 442.494 C 330.675 443.377, 323.250 444.521, 320.500 445.037 C 317.750 445.553, 308.975 446.892, 301 448.013 C 293.025 449.133, 282.675 450.705, 278 451.505 C 273.325 452.305, 269.338 452.969, 269.141 452.980 C 268.943 452.991, 269.048 454.688, 269.374 456.750 C 269.700 458.813, 270.406 463.650, 270.942 467.500 C 273.902 488.749, 275.022 496.411, 276.425 505 C 278.860 519.908, 282.183 541.871, 283.083 549 C 284.193 557.792, 287.024 577.353, 288.075 583.500 C 288.546 586.250, 289.602 593.450, 290.421 599.500 C 291.241 605.550, 292.420 613.650, 293.043 617.500 C 294.977 629.473, 295.820 635.204, 296.940 644 C 297.536 648.675, 298.888 657.675, 299.946 664 C 301.004 670.325, 302.602 681.350, 303.496 688.500 C 304.390 695.650, 305.523 703.075, 306.014 705 C 306.505 706.925, 307.465 712.937, 308.146 718.359 L 309.386 728.219 313.443 727.631 C 328.795 725.405, 345.041 723.079, 348 722.684 C 349.925 722.427, 354.425 721.686, 358 721.037 C 361.575 720.388, 369.225 719.209, 375 718.417 C 380.775 717.625, 387.975 716.552, 391 716.033 C 394.025 715.514, 401.675 714.369, 408 713.489 C 419.059 711.949, 423.189 711.340, 438.500 708.986 C 442.350 708.394, 449.775 707.294, 455 706.541 C 460.225 705.789, 473.500 703.789, 484.500 702.098 C 495.500 700.407, 507.650 698.556, 511.500 697.986 C 515.350 697.415, 524.575 696.040, 532 694.930 C 539.425 693.820, 551.800 692.029, 559.500 690.950 C 567.200 689.872, 577.100 688.339, 581.500 687.543 C 585.900 686.748, 591.750 685.832, 594.500 685.506 C 600.114 684.841, 607.269 683.772, 620.500 681.621 C 625.450 680.816, 634 679.621, 639.500 678.966 C 645 678.310, 650.850 677.410, 652.500 676.965 C 654.150 676.521, 660.900 675.422, 667.500 674.523 C 674.100 673.624, 683.550 672.219, 688.500 671.400 C 700.540 669.408, 717.072 667.098, 724.750 666.333 C 728.188 665.991, 731 665.326, 731 664.855 C 731 664.385, 732.913 663.979, 735.250 663.954 C 737.587 663.929, 745.125 663.041, 752 661.980 C 758.875 660.919, 771.025 659.130, 779 658.004 C 786.975 656.879, 797.775 655.227, 803 654.334 C 808.225 653.441, 815.200 652.343, 818.500 651.893 C 847.696 647.915, 872.725 644.205, 881.500 642.555 C 885.900 641.728, 893.517 640.567, 898.426 639.975 C 903.336 639.384, 907.766 638.645, 908.270 638.333 C 908.775 638.021, 908.963 636.131, 908.687 634.133 C 908.412 632.135, 907.438 625.325, 906.524 619 C 905.609 612.675, 904.453 604.350, 903.955 600.500 C 903.457 596.650, 902.580 591.025, 902.006 588 C 901.433 584.975, 900.302 577.550, 899.495 571.500 C 898.687 565.450, 897.568 557.800, 897.009 554.500 C 896.449 551.200, 895.341 543.550, 894.546 537.500 C 893.750 531.450, 892.663 523.800, 892.129 520.500 C 891.595 517.200, 890.231 507.975, 889.097 500 C 887.964 492.025, 886.144 479.875, 885.052 473 C 883.961 466.125, 882.609 457.125, 882.049 453 C 881.489 448.875, 880.083 439.650, 878.925 432.500 C 877.766 425.350, 876.193 414.550, 875.428 408.500 C 874.663 402.450, 873.585 394.800, 873.033 391.500 C 871.893 384.689, 869.021 364.887, 869.008 363.750 C 868.997 362.697, 864.740 362.984, 856 364.625 M 849 378.506 C 848.175 378.682, 843.450 379.343, 838.500 379.976 C 833.550 380.609, 826.125 381.735, 822 382.478 C 817.875 383.221, 811.125 384.318, 807 384.916 C 802.875 385.514, 792.300 387.101, 783.500 388.443 C 774.700 389.785, 763.675 391.390, 759 392.010 C 754.325 392.629, 748.475 393.545, 746 394.044 C 743.525 394.543, 736.100 395.677, 729.500 396.564 C 722.900 397.451, 712.550 399.013, 706.500 400.034 C 700.450 401.056, 692.575 402.179, 689 402.530 C 685.425 402.881, 678.900 403.820, 674.500 404.617 C 670.100 405.413, 661.775 406.716, 656 407.512 C 650.225 408.307, 642.575 409.437, 639 410.022 C 631.984 411.169, 624.196 412.325, 608.500 414.546 C 603 415.325, 596.025 416.409, 593 416.955 C 589.975 417.501, 582.550 418.625, 576.500 419.453 C 570.450 420.281, 562.575 421.441, 559 422.031 C 552.441 423.113, 543.108 424.507, 533 425.915 C 525.107 427.014, 501.103 430.616, 482.500 433.491 C 473.700 434.851, 461.775 436.634, 456 437.453 C 450.225 438.272, 441 439.653, 435.500 440.521 C 430 441.390, 422.575 442.506, 419 443.001 C 415.425 443.496, 408 444.604, 402.500 445.463 C 397 446.323, 389.125 447.469, 385 448.010 C 380.875 448.551, 374.800 449.446, 371.500 449.999 C 368.200 450.553, 360.550 451.732, 354.500 452.620 C 339.962 454.753, 334.027 455.685, 331 456.309 C 329.625 456.593, 322.650 457.551, 315.500 458.437 C 308.350 459.324, 300.475 460.465, 298 460.972 C 295.525 461.480, 291.691 462.166, 289.480 462.497 C 282.730 463.506, 282.860 462.885, 285.594 481.025 C 289.998 510.244, 291.005 517.341, 291.982 526.045 C 292.510 530.745, 293.591 537.720, 294.386 541.545 C 295.180 545.370, 296.140 551.200, 296.519 554.500 C 296.899 557.800, 297.830 564.550, 298.590 569.500 C 299.350 574.450, 300.833 584.125, 301.885 591 C 302.938 597.875, 304.102 606.650, 304.472 610.500 C 304.843 614.350, 305.750 619.975, 306.489 623 C 307.228 626.025, 308.133 631.425, 308.499 635 C 308.865 638.575, 310.009 646.900, 311.039 653.500 C 312.070 660.100, 314.031 673.150, 315.396 682.500 C 316.762 691.850, 318.452 702.787, 319.153 706.805 C 320.391 713.908, 320.496 714.092, 322.963 713.470 C 324.358 713.119, 329.100 712.442, 333.500 711.968 C 337.900 711.493, 343.750 710.641, 346.500 710.074 C 349.250 709.508, 358.455 708.125, 366.956 707.001 C 375.456 705.877, 384.006 704.540, 385.956 704.030 C 387.905 703.520, 395.575 702.379, 403 701.496 C 410.425 700.613, 418.075 699.492, 420 699.006 C 423.165 698.206, 452.792 693.838, 478.500 690.380 C 484 689.640, 491.200 688.556, 494.500 687.971 C 505.889 685.952, 510.536 685.260, 520.500 684.096 C 526 683.453, 532.075 682.519, 534 682.021 C 535.925 681.522, 548.525 679.516, 562 677.563 C 575.475 675.610, 592.575 673.089, 600 671.960 C 607.425 670.831, 621.375 668.809, 631 667.467 C 640.625 666.125, 650.750 664.568, 653.500 664.006 C 656.250 663.445, 661.875 662.524, 666 661.960 C 670.125 661.396, 676.200 660.514, 679.500 660 C 682.800 659.487, 693.150 657.964, 702.500 656.617 C 729.805 652.684, 746.633 650.179, 760 648.055 C 766.875 646.963, 777.900 645.348, 784.500 644.465 C 791.100 643.583, 798.075 642.468, 800 641.988 C 801.925 641.508, 809.350 640.381, 816.500 639.485 C 823.650 638.588, 833.100 637.207, 837.500 636.416 C 841.900 635.625, 849.100 634.533, 853.500 633.988 C 857.900 633.444, 867.350 632.076, 874.500 630.949 C 881.650 629.822, 888.947 628.680, 890.715 628.411 C 892.483 628.142, 894.164 627.544, 894.449 627.082 C 895.003 626.186, 893.015 610.363, 890.483 595.500 C 889.639 590.550, 888.513 583.125, 887.981 579 C 887.448 574.875, 886.354 567, 885.549 561.500 C 884.744 556, 883.165 545.200, 882.041 537.500 C 880.916 529.800, 879.110 518.100, 878.027 511.500 C 876.944 504.900, 875.367 494.100, 874.523 487.500 C 873.679 480.900, 872.566 473.250, 872.050 470.500 C 870.817 463.932, 867.504 441.559, 863.980 416 C 862.804 407.468, 859.986 387.996, 859.204 383 C 858.511 378.570, 858.438 378.498, 854.500 378.343 C 852.300 378.257, 849.825 378.330, 849 378.506 M 815 399.134 C 810.452 400.059, 804.694 400.941, 786.500 403.495 C 777.892 404.704, 768.696 406.238, 766.226 406.878 C 765.158 407.155, 765.993 419.710, 767.465 425.500 C 768.613 430.018, 769.008 430.500, 771.557 430.500 L 774.377 430.500 776.197 444 C 777.197 451.425, 778.432 459.525, 778.941 462 C 779.449 464.475, 780.435 470.265, 781.132 474.868 C 782.314 482.677, 782.275 483.325, 780.552 484.586 C 779.536 485.328, 778.258 485.659, 777.711 485.321 C 776.543 484.600, 777.575 499.405, 779.099 505.250 C 780.277 509.766, 780.538 509.794, 796.328 507.080 C 802.473 506.024, 812.900 504.439, 819.500 503.559 C 840.979 500.696, 842.508 500.213, 847.021 494.860 C 849.210 492.264, 851 489.858, 851 489.512 C 851 489.166, 852.376 487.170, 854.058 485.077 L 857.116 481.272 855.529 469.886 C 854.655 463.624, 853.545 456.925, 853.060 455 C 852.575 453.075, 851.900 448.800, 851.560 445.500 C 849.943 429.813, 847.018 412.849, 845.628 411.107 C 845.017 410.341, 841.013 407.078, 836.729 403.857 C 829.671 398.549, 828.499 398.010, 824.221 398.110 C 821.624 398.170, 817.475 398.631, 815 399.134 M 746 409.559 C 742.425 410.310, 734.100 411.671, 727.500 412.583 C 720.900 413.495, 713.025 414.616, 710 415.075 C 694.193 417.469, 684.460 418.932, 684.123 418.964 C 683.915 418.984, 684.027 421.363, 684.370 424.250 C 684.714 427.137, 685.283 432.084, 685.636 435.242 C 686.326 441.430, 687.132 442.619, 690.999 443.154 C 693.623 443.517, 694.020 445.551, 700.583 492.200 C 701.212 496.670, 701.116 496.933, 698.622 497.559 C 695.517 498.338, 695.364 500, 697.219 512.826 L 698.438 521.256 705.469 520.603 C 709.336 520.244, 714.750 519.538, 717.500 519.035 C 720.250 518.531, 729.475 517.162, 738 515.993 C 746.525 514.823, 755.075 513.470, 757 512.987 C 758.925 512.503, 763.425 511.745, 767 511.303 C 774.496 510.377, 774.007 512.103, 771.621 495 C 770.738 488.675, 770.013 483.387, 770.008 483.250 C 769.986 482.562, 763.588 483.163, 755.874 484.579 C 748.707 485.894, 747.072 486.546, 746.214 488.429 C 745.328 490.375, 744.151 490.792, 737.914 491.371 C 733.917 491.743, 730.333 491.699, 729.949 491.273 C 728.701 489.890, 727.847 477, 729.004 477 C 729.586 477, 730.322 477.675, 730.638 478.500 C 731.404 480.496, 736.173 480.425, 746.696 478.259 L 755.156 476.517 754.598 473.509 C 754.291 471.854, 753.271 464.988, 752.330 458.250 L 750.620 446 746.560 446.076 C 744.327 446.118, 739.125 446.693, 735 447.354 C 728.454 448.404, 727.459 448.839, 727.180 450.778 C 726.730 453.910, 724.266 453.545, 723.617 450.250 C 722.213 443.120, 721.885 438.189, 722.778 437.637 C 723.312 437.307, 726.970 436.738, 730.907 436.372 C 736.940 435.811, 738.257 435.969, 739.284 437.374 C 740.408 438.911, 741.170 438.924, 749.002 437.539 C 753.676 436.713, 758.777 436.029, 760.338 436.018 C 763.511 435.998, 763.487 436.718, 760.828 421 C 758.741 408.668, 758.676 408.515, 755.442 408.347 C 753.824 408.263, 749.575 408.808, 746 409.559 M 665.500 421.554 C 661.650 422.286, 654.900 423.366, 650.500 423.954 C 642.498 425.025, 633.900 426.366, 624.500 428.011 C 621.750 428.492, 613.875 429.656, 607 430.598 C 600.125 431.539, 594.186 432.578, 593.801 432.905 C 592.928 433.648, 596.945 460.154, 598.126 461.446 C 598.668 462.038, 601.889 461.924, 606.746 461.141 C 622.104 458.665, 621 459.072, 621 455.889 C 621 453.696, 621.468 453, 622.941 453 C 624.009 453, 625.147 453.429, 625.471 453.952 C 626.119 455.002, 631.933 493.413, 632.699 501.708 C 633.156 506.648, 633.047 506.950, 630.590 507.567 C 627.594 508.319, 627.532 509.024, 629.325 522 L 630.500 530.500 636.500 530.433 C 643.193 530.358, 670.152 526.279, 671.120 525.195 C 671.462 524.813, 671.396 522.025, 670.974 519 C 670.553 515.975, 669.873 511.137, 669.464 508.250 C 669.056 505.363, 668.222 502.933, 667.611 502.852 C 667 502.771, 665.600 502.658, 664.501 502.602 C 662.315 502.491, 662.339 502.595, 657.947 473.500 C 654.096 447.988, 654.163 448.983, 656.211 447.887 C 658.656 446.578, 660 447.566, 660 450.673 C 660 453.144, 660.154 453.206, 664.750 452.579 C 667.362 452.223, 672.582 451.391, 676.350 450.731 L 683.199 449.529 682.651 443.015 C 682.350 439.432, 681.517 432.900, 680.801 428.500 L 679.500 420.500 676 420.362 C 674.075 420.286, 669.350 420.823, 665.500 421.554 M 806.144 425.146 C 803.165 426.004, 802.855 426.415, 803.378 428.806 C 803.703 430.288, 805.146 440.050, 806.586 450.500 C 808.025 460.950, 809.649 471.909, 810.194 474.854 L 811.185 480.207 816.749 479.512 C 819.810 479.130, 822.922 478.583, 823.665 478.298 C 826.230 477.314, 826.309 472.551, 824.021 457.051 C 822.758 448.498, 821.323 438.406, 820.831 434.625 C 819.589 425.077, 818.848 423.980, 813.715 424.090 C 811.397 424.140, 807.990 424.615, 806.144 425.146 M 579.500 434.543 C 578.634 434.877, 562.157 437.278, 550.750 438.732 C 547.470 439.150, 547.004 439.542, 547.035 441.855 C 547.061 443.779, 549.108 458.447, 549.951 462.750 C 549.978 462.887, 551.284 463, 552.853 463 C 555.653 463, 555.736 463.163, 557.283 471.750 C 560.569 489.993, 563.929 515.022, 563.308 516.639 C 563.021 517.388, 561.869 518, 560.748 518 C 558.830 518, 558.751 518.398, 559.403 524.750 C 559.785 528.462, 560.412 533.750, 560.798 536.500 L 561.500 541.500 565.500 541.339 C 567.700 541.250, 575.350 540.247, 582.500 539.110 C 589.650 537.973, 596.752 537.033, 598.281 537.021 C 602.025 536.993, 602.516 535.159, 601.058 526.657 C 598.566 512.130, 598.695 512.467, 595.765 512.814 C 592.783 513.167, 593.102 514.151, 590.464 496.500 C 584.743 458.232, 584.780 458.713, 587.500 458.190 C 588.600 457.979, 589.882 457.445, 590.349 457.004 C 591.052 456.340, 589.963 448.613, 587.424 436.250 C 587.055 434.454, 586.310 434.016, 583.731 434.079 C 581.954 434.122, 580.050 434.331, 579.500 434.543 M 521.531 443.055 C 508.298 445.255, 506.463 446.015, 505.551 449.670 C 505.163 451.227, 504.220 453.850, 503.456 455.500 C 501.536 459.644, 496.322 472.373, 493.831 479 C 490.476 487.926, 490.125 487.971, 483.974 480.272 C 480.999 476.547, 474.727 468.887, 470.039 463.250 C 460.361 451.615, 461.615 452.084, 446.500 454.436 C 430.305 456.956, 429.129 457.222, 428.650 458.471 C 428.389 459.150, 428.940 464.384, 429.873 470.103 C 431.464 479.846, 431.726 480.521, 434.035 480.835 C 435.391 481.019, 436.854 481.508, 437.286 481.921 C 437.719 482.335, 438.695 487.359, 439.455 493.086 C 440.216 498.814, 441.537 507.550, 442.391 512.500 C 443.246 517.450, 444.070 524.650, 444.222 528.500 C 444.487 535.173, 444.391 535.515, 442.159 535.831 C 440.007 536.136, 439.855 536.540, 440.277 540.831 C 440.957 547.748, 443.016 558.410, 443.808 559.120 C 444.482 559.725, 447.503 559.392, 463 557.010 C 467.125 556.376, 473.125 555.518, 476.334 555.102 C 481.868 554.386, 484.434 552.755, 483.609 550.479 C 483.405 549.917, 482.674 545.328, 481.984 540.282 L 480.731 531.107 477.615 530.803 C 474.677 530.517, 474.467 530.217, 473.911 525.500 C 473.587 522.750, 473.062 519.825, 472.744 519 C 471.643 516.139, 470.981 509, 471.817 509 C 472.279 509, 476.222 513.363, 480.579 518.695 C 484.935 524.028, 489.181 529.096, 490.014 529.959 C 490.846 530.821, 492.564 532.983, 493.832 534.764 C 495.099 536.544, 496.668 537.994, 497.318 537.986 C 497.968 537.978, 500.247 533.591, 502.382 528.236 C 506.118 518.869, 509.532 510.842, 512.478 504.500 L 513.872 501.500 513.936 504.185 C 513.971 505.662, 514.405 507.934, 514.899 509.234 C 515.393 510.534, 516.121 514.614, 516.515 518.299 L 517.233 525 514.616 525 C 512.419 525, 512.007 525.440, 512.042 527.750 C 512.123 532.993, 514.522 546.922, 515.508 547.877 C 516.143 548.491, 519.923 548.359, 526 547.510 C 531.225 546.780, 539.469 545.627, 544.321 544.949 C 553.064 543.726, 556.598 542.001, 555.614 539.437 C 555.339 538.719, 554.606 534.390, 553.986 529.816 C 553.365 525.242, 552.552 521.201, 552.179 520.835 C 551.805 520.469, 550.384 520.019, 549.019 519.835 C 546.087 519.439, 545.306 516.462, 542.502 495 C 541.532 487.575, 540.157 478.139, 539.445 474.031 C 538.035 465.885, 538.188 465, 541 465 C 542.035 465, 543.154 464.561, 543.486 464.023 C 543.817 463.486, 543.394 458.366, 542.545 452.645 C 541.695 446.924, 541 441.964, 541 441.622 C 541 440.561, 532.980 441.151, 521.531 443.055 M 415.500 459.085 C 412.070 459.716, 405.622 460.700, 385.750 463.624 C 382.312 464.130, 382.004 464.439, 382.042 467.338 C 382.066 469.077, 382.648 474.325, 383.337 479 C 384.577 487.420, 384.618 487.503, 387.629 487.801 C 390.653 488.100, 390.679 488.156, 392.359 497.801 C 393.288 503.135, 394.715 512.675, 395.529 519 C 396.343 525.325, 397.499 532.911, 398.098 535.857 C 399.232 541.438, 398.839 542.547, 395.500 543.192 C 393.201 543.636, 393.164 544.914, 395.080 557.706 C 395.985 563.754, 396.728 565.998, 397.904 566.238 C 399.516 566.566, 403.721 566.069, 416.500 564.040 C 420.350 563.429, 426.364 562.490, 429.865 561.952 C 437.116 560.840, 438.097 560.421, 437.449 558.718 C 437.194 558.048, 436.177 553, 435.189 547.500 C 433.653 538.955, 433.109 537.485, 431.446 537.398 C 430.376 537.342, 429.012 537.229, 428.416 537.148 C 427.809 537.065, 426.795 532.481, 426.116 526.750 C 425.447 521.112, 424.477 514.025, 423.959 511 C 422.873 504.643, 421.505 495.734, 420.480 488.335 C 419.800 483.423, 419.881 483.153, 422.132 482.835 C 424.410 482.513, 424.490 482.216, 424.233 475 C 423.945 466.910, 422.213 459.267, 420.539 458.701 C 419.968 458.508, 417.700 458.681, 415.500 459.085 M 338.875 470.458 C 338.623 470.710, 335.285 471.373, 331.458 471.931 C 327.631 472.489, 320.345 473.547, 315.266 474.283 C 310.187 475.020, 305.322 475.518, 304.454 475.390 C 301.992 475.029, 301.727 477.204, 303.019 487.207 C 304.426 498.114, 305.233 500, 308.490 500 C 310.515 500, 311.004 500.611, 311.493 503.750 C 311.813 505.813, 312.502 509.975, 313.022 513 C 313.542 516.025, 314.637 523.450, 315.455 529.500 C 316.272 535.550, 317.199 542.300, 317.513 544.500 C 318.799 553.481, 318.665 554.477, 316.128 554.835 C 313.800 555.165, 313.769 555.310, 314.426 562.835 C 315.057 570.052, 316.411 577.785, 317.163 578.463 C 317.348 578.630, 320.200 578.343, 323.500 577.824 C 326.800 577.306, 332.425 576.500, 336 576.034 C 349.375 574.290, 382.411 569.258, 388 568.113 C 391.489 567.399, 391.499 567.381, 391.190 562.448 C 390.831 556.742, 388.118 540.001, 387.350 538.758 C 386.731 537.755, 376.488 538.748, 369.500 540.489 C 364.994 541.611, 364.531 541.985, 364.809 544.272 C 364.979 545.667, 364.754 547.026, 364.309 547.291 C 363.864 547.556, 359.852 548.091, 355.394 548.478 L 347.288 549.183 346.681 542.841 C 345.997 535.693, 344.810 527.126, 342.477 512.500 C 339.459 493.569, 339.479 495.348, 342.276 494.645 C 343.653 494.300, 344.980 493.451, 345.225 492.759 C 345.903 490.843, 343.034 472.746, 341.821 471.284 C 340.719 469.957, 339.671 469.663, 338.875 470.458 M 853.500 510.654 C 851.850 510.871, 847.350 511.692, 843.500 512.478 C 839.650 513.264, 833.800 514.177, 830.500 514.506 C 819.018 515.652, 819.769 514.929, 820.567 524.080 C 821.551 535.352, 823.087 539.372, 826.654 540.007 C 829.394 540.494, 829.546 540.829, 830.740 549.007 C 831.422 553.678, 831.872 558.133, 831.740 558.908 C 831.608 559.682, 827.006 554.732, 821.513 547.908 C 816.020 541.083, 811.056 535.004, 810.481 534.397 C 809.907 533.790, 807.010 530.303, 804.044 526.647 C 799.363 520.878, 798.214 520, 795.344 520 C 791.924 520, 782.302 521.374, 771 523.477 L 764.500 524.686 764.597 528.093 C 764.834 536.478, 766.421 546.278, 767.756 547.614 C 768.556 548.413, 770.025 548.809, 771.021 548.493 C 772.017 548.177, 773.081 548.322, 773.386 548.815 C 773.691 549.308, 775.085 557.764, 776.484 567.606 C 779.216 586.814, 780.370 594.321, 781.505 600.253 C 782.200 603.882, 782.117 604.027, 778.996 604.651 C 775.866 605.277, 775.786 605.419, 776.331 609.398 C 776.640 611.654, 777.204 616.534, 777.584 620.241 C 777.964 623.949, 778.831 627.445, 779.512 628.010 C 780.958 629.210, 796.844 627.714, 806.812 625.440 C 810.284 624.648, 814.356 624, 815.862 624 C 819.422 624, 820.989 622.342, 820.490 619.104 C 820.269 617.672, 819.563 612.788, 818.922 608.250 C 818.277 603.690, 817.251 599.934, 816.628 599.852 C 816.007 599.771, 814.600 599.658, 813.500 599.602 C 811.491 599.500, 810.723 597.114, 808.740 584.809 C 807.796 578.953, 810.230 580.913, 820.772 594.500 C 821.199 595.050, 825.297 599.975, 829.880 605.444 C 834.462 610.913, 838.451 616.010, 838.742 616.771 C 839.797 619.519, 843.694 619.661, 859.500 617.529 L 875.500 615.370 875.232 607.886 C 875.085 603.769, 874.625 598.398, 874.210 595.951 C 873.516 591.853, 873.200 591.475, 870.228 591.187 C 868.453 591.014, 867 590.614, 867 590.298 C 867 589.981, 866.149 584.497, 865.110 578.111 C 864.070 571.725, 862.687 562.450, 862.035 557.500 C 861.384 552.550, 860.434 546.613, 859.925 544.307 C 858.339 537.121, 858.684 535.306, 861.845 534.204 C 864.679 533.216, 864.687 533.187, 863.855 527.356 C 863.395 524.135, 862.675 519.025, 862.255 516 C 861.427 510.035, 860.855 509.686, 853.500 510.654 M 732.500 529.041 C 730.850 529.514, 724.100 530.614, 717.500 531.484 C 695.194 534.426, 694.780 534.520, 692.721 537.093 C 685.839 545.697, 680 554.647, 680 556.592 C 680 557.845, 680.411 559.951, 680.914 561.273 C 681.416 562.595, 682.549 569.487, 683.431 576.588 C 685.260 591.313, 688.666 614.104, 690.143 621.500 C 691.014 625.863, 691.737 626.914, 695.821 629.749 C 698.394 631.535, 702.761 634.569, 705.523 636.490 L 710.547 639.982 726.523 637.542 C 735.311 636.200, 745.564 634.552, 749.309 633.880 L 756.118 632.657 763.100 623.083 L 770.083 613.510 769.495 608.005 C 769.172 604.977, 768.482 600.700, 767.963 598.500 C 767.443 596.300, 766.296 589.325, 765.413 583 C 764.530 576.675, 763.165 567.225, 762.379 562 C 761.593 556.775, 760.676 550.325, 760.340 547.666 C 759.707 542.656, 759.715 542.665, 747.941 533.689 C 740.066 527.685, 738.681 527.268, 732.500 529.041 M 659.500 539.928 C 658.400 540.369, 651.432 541.496, 644.016 542.432 C 636.599 543.369, 630.457 544.217, 630.366 544.318 C 630.275 544.418, 630.608 547.875, 631.107 552 C 633.078 568.300, 633.543 569.563, 637.166 568.436 C 639.398 567.742, 639.654 568.328, 640.912 577.016 C 641.508 581.132, 642.414 587.200, 642.926 590.500 C 648.416 625.914, 648.248 623.203, 645 624.014 C 642.716 624.584, 642.518 625.064, 642.710 629.569 C 642.825 632.281, 643.458 637.800, 644.116 641.834 L 645.311 649.167 650.406 648.660 C 653.208 648.381, 662.362 647.135, 670.750 645.892 L 686 643.632 686 638.865 C 686 634.719, 685.401 630.603, 683.435 621.250 C 683.075 619.538, 682.263 619, 680.042 619 C 677.309 619, 677.084 618.696, 676.526 614.250 C 676.198 611.638, 675.490 607.025, 674.952 604 C 674.050 598.932, 671.773 582.773, 670.442 572 C 670.136 569.525, 669.688 566.811, 669.445 565.968 C 669.158 564.971, 670.062 564.038, 672.039 563.291 C 674.476 562.371, 674.982 561.688, 674.607 559.823 C 674.350 558.545, 673.593 553.337, 672.925 548.250 L 671.710 539 666.605 539.063 C 663.797 539.098, 660.600 539.487, 659.500 539.928 M 618.939 546.046 C 616.980 546.510, 611.805 547.366, 607.439 547.947 C 594.525 549.667, 580.115 551.777, 570.500 553.357 C 565.550 554.171, 558.575 555.146, 555 555.524 C 551.425 555.903, 546.250 556.776, 543.500 557.465 C 539.443 558.481, 538.432 559.169, 538.137 561.109 C 537.603 564.633, 541.077 586.318, 542.381 587.599 C 543.194 588.397, 546.504 588.261, 554.500 587.099 L 565.500 585.500 565.500 582.500 C 565.500 580.023, 565.948 579.448, 568.067 579.201 L 570.634 578.902 572.373 592.201 C 575.392 615.285, 576.189 620.438, 577.107 622.797 C 577.598 624.060, 578 627.323, 578 630.047 C 578 634.664, 577.830 635, 575.500 635 C 572.546 635, 572.523 635.235, 574.172 648.656 C 574.977 655.207, 575.796 658.368, 576.786 658.748 C 578.410 659.371, 602.327 656.494, 611.500 654.572 C 616.456 653.534, 617.460 652.983, 617.268 651.408 C 617.140 650.358, 616.576 645.292, 616.015 640.150 C 615.453 635.007, 614.721 630.358, 614.388 629.819 C 614.055 629.279, 612.701 629.109, 611.379 629.441 C 608.015 630.285, 607.495 628.616, 604.538 607.500 C 603.152 597.600, 601.573 586.575, 601.029 583 C 599.670 574.068, 599.681 574, 602.500 574 C 604.286 574, 605 574.540, 605 575.893 C 605 578.655, 607.097 579.058, 615.757 577.962 C 627.599 576.462, 629.518 575.752, 629.395 572.914 C 629.198 568.381, 626.913 552.508, 625.917 548.750 C 624.870 544.802, 624.609 544.701, 618.939 546.046 M 719.376 555.726 C 713.057 556.303, 711.067 559.085, 712.027 566 C 714.695 585.214, 716.150 596.130, 716.623 600.500 C 717.312 606.864, 718.815 610.830, 720.974 611.986 C 723.277 613.219, 736.089 611.339, 737.930 609.499 C 739.156 608.272, 739.185 606.830, 738.124 599.779 C 737.438 595.226, 736.473 589.475, 735.979 587 C 735.485 584.525, 734.337 576.875, 733.428 570 C 731.349 554.279, 731.668 554.603, 719.376 555.726 M 518.500 560.955 C 516.850 561.406, 509.938 562.593, 503.140 563.593 C 494.853 564.811, 490.604 565.868, 490.247 566.798 C 489.954 567.562, 490.267 571.407, 490.942 575.343 C 493.328 589.254, 493.411 589.498, 495.771 589.529 C 499.269 589.575, 499.883 590.969, 501.059 601.524 C 501.670 607.011, 502.543 613.075, 502.999 615 C 503.907 618.830, 505.625 630.292, 506.614 639.110 C 507.234 644.643, 507.202 644.734, 504.286 645.750 C 501.350 646.774, 501.336 646.816, 502.161 652.140 C 502.618 655.088, 503.360 660.079, 503.810 663.231 C 504.260 666.383, 504.918 669.251, 505.271 669.605 C 505.956 670.289, 536.871 666.398, 543.350 664.812 C 546.646 664.005, 547.117 663.556, 546.625 661.685 C 546.310 660.483, 545.546 656.125, 544.928 652 C 543.044 639.427, 543.280 640, 539.981 640 C 538.341 640, 537 639.838, 537 639.639 C 537 639.441, 536.098 633.478, 534.995 626.389 C 528.596 585.260, 528.531 584.069, 532.691 584.015 C 534.735 583.989, 534.975 582.478, 533.906 576.393 C 533.337 573.152, 532.563 568.250, 532.186 565.500 L 531.500 560.500 526.500 560.318 C 523.750 560.218, 520.150 560.504, 518.500 560.955 M 455.500 570.520 C 437.355 573.455, 425.908 575.191, 415.500 576.586 C 409.450 577.396, 403.894 578.274, 403.153 578.536 C 401.654 579.066, 402.100 586.798, 404.232 597.227 C 405.361 602.751, 405.509 602.945, 408.413 602.727 C 411.344 602.506, 411.442 602.644, 412.156 608 C 413.563 618.564, 415.184 629.590, 417.081 641.500 C 419.362 655.825, 419.434 658, 417.622 658 C 414.236 658, 413.780 660.531, 415.094 672.038 L 416.363 683.159 421.932 682.698 C 424.994 682.445, 432.225 681.506, 438 680.612 C 443.775 679.718, 451.650 678.569, 455.500 678.059 C 467.721 676.439, 481.463 673.938, 482.161 673.206 C 485.875 669.310, 495.898 654.220, 495.559 653.034 C 495.318 652.191, 494.647 647.450, 494.069 642.500 C 493.491 637.550, 492.332 629.225, 491.493 624 C 490.654 618.775, 488.980 607.565, 487.772 599.088 L 485.577 583.676 475.717 576.338 C 470.294 572.302, 465.327 569.051, 464.679 569.113 C 464.030 569.176, 459.900 569.809, 455.500 570.520 M 378 582.069 C 370.575 583.125, 360.675 584.664, 356 585.489 C 351.325 586.314, 343.900 587.446, 339.500 588.006 C 335.100 588.565, 328.688 589.519, 325.250 590.125 C 318.110 591.383, 318.094 591.420, 320.107 602.440 C 322.588 616.028, 322.362 615.456, 325.476 615.997 C 328.337 616.493, 328.404 616.659, 330.162 627.500 C 331.142 633.550, 332.662 643.900, 333.539 650.500 C 334.415 657.100, 335.382 664.374, 335.687 666.665 C 336.194 670.474, 336.039 670.858, 333.870 671.165 C 330.938 671.580, 330.371 674.533, 331.889 681.493 C 332.816 685.748, 333.827 692.467, 333.962 695.284 C 334.005 696.167, 340.630 695.528, 352.500 693.496 C 362.062 691.860, 373.110 690.199, 382 689.062 C 385.575 688.604, 393.393 687.430, 399.374 686.453 L 410.249 684.676 409.564 676.588 C 408.682 666.165, 406.683 656.457, 405.459 656.656 C 404.932 656.742, 401.125 657.106, 397 657.465 C 387.712 658.274, 383.219 659.626, 382.812 661.732 C 382.494 663.381, 374.244 665.872, 368.817 665.958 C 365.796 666.005, 365.443 665.270, 364.459 656.871 C 364.008 653.018, 364.168 651.014, 364.967 650.520 C 365.684 650.077, 366.358 650.653, 366.713 652.011 C 367.230 653.986, 367.733 654.155, 371.396 653.580 C 373.653 653.226, 378.626 652.502, 382.447 651.971 C 386.268 651.440, 389.819 650.581, 390.338 650.062 C 391.240 649.160, 390.744 643.981, 387.991 625.561 C 387.421 621.744, 386.773 618.439, 386.550 618.217 C 386.328 617.995, 381.051 618.672, 374.823 619.722 C 364.650 621.438, 363.468 621.854, 363.180 623.816 C 363.005 625.017, 362.226 626, 361.450 626 C 359.933 626, 359.447 624.388, 358.541 616.364 C 357.872 610.438, 357.718 610.563, 367.667 608.973 C 373.472 608.046, 374.370 608.124, 375.488 609.652 C 376.649 611.241, 377.538 611.275, 386.625 610.088 C 398.219 608.574, 400.358 607.702, 399.455 604.860 C 399.103 603.750, 398.054 597.815, 397.124 591.671 C 395.651 581.931, 395.182 580.477, 393.467 580.324 C 392.385 580.227, 385.425 581.012, 378 582.069 M 447.500 596.655 C 446.400 596.888, 444.488 597.294, 443.250 597.558 C 440.714 598.099, 440.402 600.392, 441.921 607.307 C 442.428 609.613, 443.584 617.125, 444.492 624 C 445.399 630.875, 446.347 637.625, 446.598 639 C 446.849 640.375, 447.284 643.075, 447.564 645 C 448.833 653.722, 448.444 653.328, 455.184 652.717 C 464.187 651.901, 464.565 651.240, 463.160 638.802 C 462.520 633.136, 461.565 625.800, 461.038 622.500 C 460.511 619.200, 459.579 612.900, 458.967 608.500 C 457.327 596.706, 455.617 594.939, 447.500 596.655" stroke="none" fill="black" fill-rule="evenodd"/>
</svg>